<svg width="60" height="60" viewBox="0 0 60 60" fill="none" xmlns="http://www.w3.org/2000/svg">
<path d="M13.1992 0C17.2409 5.38894 21.1241 10.5665 24.5318 15.2246C24.5318 6.71803e-06 24.5318 0 13.1992 0Z" fill="white"/>
<path d="M35.4412 15.2246V24.532H24.5312V15.2246C26.5037 17.8222 28.3792 20.3406 29.973 22.5331C31.5932 20.3406 33.4688 17.8486 35.4412 15.2246Z" fill="white"/>
<path d="M46.8004 0C42.7587 5.38894 38.8755 10.5665 35.4678 15.2246C35.4678 6.71803e-06 35.4678 0 46.8004 0Z" fill="white"/>
<path d="M46.8004 60.0005C42.7587 54.6116 38.8755 49.434 35.4678 44.7759C35.4678 60.0005 35.4678 60.0005 46.8004 60.0005Z" fill="white"/>
<path d="M35.4412 35.4683V44.7756C33.4688 42.178 31.5932 39.6861 29.973 37.4847C28.3528 39.6861 26.4508 42.178 24.5312 44.7756V35.4683H35.4412Z" fill="white"/>
<path d="M13.1992 60.0005C17.2409 54.6116 21.1241 49.434 24.5318 44.7759C24.5318 60.0005 24.5318 60.0005 13.1992 60.0005Z" fill="white"/>
<path d="M60 13.1992C54.6111 17.2409 49.4335 21.1241 44.7754 24.5318C60 24.5318 60 24.5318 60 13.1992Z" fill="white"/>
<path d="M35.4418 30.0004H30V24.5322H35.4418V30.0004Z" fill="white"/>
<path d="M35.4418 35.4687H30V30.0005H35.4418V35.4687Z" fill="white"/>
<path d="M37.4852 30.0004C39.6778 31.6206 42.1697 33.5226 44.7674 35.4422H35.4424V24.5322H44.7497C42.1521 26.5046 39.6338 28.3802 37.4852 30.0004Z" fill="white"/>
<path d="M60 46.8009C54.6111 42.7592 49.4335 38.876 44.7754 35.4683C60 35.4683 60 35.4683 60 46.8009Z" fill="white"/>
<path d="M0 46.8009C5.38894 42.7592 10.5665 38.876 15.2246 35.4683C-2.01541e-05 35.4683 0 35.4683 0 46.8009Z" fill="white"/>
<path d="M29.9994 30.0004H24.5312V24.5322H29.9994V30.0004Z" fill="white"/>
<path d="M29.9994 35.4687H24.5312V30.0005H29.9994V35.4687Z" fill="white"/>
<path d="M24.531 24.5322V35.4422H15.2236C17.8212 33.4698 20.3132 31.5942 22.5145 30.0004C20.3132 28.3802 17.8212 26.4782 15.2236 24.5322H24.531Z" fill="white"/>
<path d="M0 13.1992C5.38894 17.2409 10.5665 21.1241 15.2246 24.5318C-2.01541e-05 24.5318 0 24.5318 0 13.1992Z" fill="white"/>
</svg>
