<svg width="60" height="61" viewBox="0 0 60 61" fill="none" xmlns="http://www.w3.org/2000/svg">
<path d="M13.1996 0.0698242C17.2413 5.45876 21.1245 10.6364 24.5322 15.2944C24.5322 0.0698309 24.5322 0.0698242 13.1996 0.0698242Z" fill="#24AAE1"/>
<path d="M35.4414 15.2944V24.6018H24.5315V15.2944C26.5039 17.8921 28.3795 20.4104 29.9732 22.603C31.5934 20.4104 33.469 17.9185 35.4414 15.2944Z" fill="#24AAE1"/>
<path d="M46.8004 0.0698242C42.7587 5.45876 38.8755 10.6364 35.4677 15.2944C35.4677 0.0698309 35.4677 0.0698242 46.8004 0.0698242Z" fill="#24AAE1"/>
<path d="M46.8004 60.0702C42.7587 54.6813 38.8755 49.5037 35.4677 44.8456C35.4677 60.0703 35.4677 60.0702 46.8004 60.0702Z" fill="#2BB572"/>
<path d="M35.4414 35.5382V44.8455C33.469 42.2479 31.5934 39.756 29.9732 37.5546C28.353 39.756 26.4511 42.2479 24.5315 44.8455V35.5382H35.4414Z" fill="#2BB572"/>
<path d="M13.1996 60.0702C17.2413 54.6813 21.1245 49.5037 24.5322 44.8456C24.5322 60.0703 24.5322 60.0702 13.1996 60.0702Z" fill="#2BB572"/>
<path d="M60 13.2692C54.611 17.3109 49.4334 21.1941 44.7754 24.6018C60 24.6018 60 24.6018 60 13.2692Z" fill="#12A79D"/>
<path d="M35.4422 30.0701H30.0004V24.6019H35.4422V30.0701Z" fill="#008E93"/>
<path d="M35.4422 35.5383H30.0004V30.0701H35.4422V35.5383Z" fill="#009D60"/>
<path d="M37.4848 30.0701C39.6773 31.6903 42.1693 33.5923 44.7669 35.5119H35.4419V24.6019H44.7493C42.1517 26.5743 39.6333 28.4499 37.4848 30.0701Z" fill="#12A79D"/>
<path d="M60 46.8708C54.611 42.8291 49.4334 38.9459 44.7754 35.5382C60 35.5382 60 35.5382 60 46.8708Z" fill="#12A79D"/>
<path d="M0 46.8708C5.38894 42.8291 10.5665 38.9459 15.2246 35.5382C-2.01541e-05 35.5382 0 35.5382 0 46.8708Z" fill="#3AB54A"/>
<path d="M29.9997 30.0701H24.5315V24.6019H29.9997V30.0701Z" fill="#00974C"/>
<path d="M29.9997 35.5383H24.5315V30.0701H29.9997V35.5383Z" fill="#00A84E"/>
<path d="M24.5312 24.6019V35.5119H15.2238C17.8214 33.5394 20.3134 31.6639 22.5147 30.0701C20.3134 28.4499 17.8214 26.5479 15.2238 24.6019H24.5312Z" fill="#3AB54A"/>
<path d="M0 13.2692C5.38894 17.3109 10.5665 21.1941 15.2246 24.6018C-2.01541e-05 24.6018 0 24.6018 0 13.2692Z" fill="#3AB54A"/>
</svg>
