<svg width="60" height="60" viewBox="0 0 60 60" fill="none" xmlns="http://www.w3.org/2000/svg">
<path d="M13.1996 0C17.2413 5.38894 21.1245 10.5665 24.5322 15.2246C24.5322 6.71803e-06 24.5322 0 13.1996 0Z" fill="white"/>
<path d="M35.4414 15.2246V24.532H24.5315V15.2246C26.5039 17.8222 28.3795 20.3406 29.9732 22.5331C31.5934 20.3406 33.469 17.8486 35.4414 15.2246Z" fill="white"/>
<path d="M46.8004 0C42.7587 5.38894 38.8755 10.5665 35.4677 15.2246C35.4677 6.71803e-06 35.4677 0 46.8004 0Z" fill="white"/>
<path d="M46.8004 60.0005C42.7587 54.6116 38.8755 49.434 35.4677 44.7759C35.4677 60.0005 35.4677 60.0005 46.8004 60.0005Z" fill="white"/>
<path d="M35.4414 35.4683V44.7756C33.469 42.178 31.5934 39.6861 29.9732 37.4847C28.353 39.6861 26.4511 42.178 24.5315 44.7756V35.4683H35.4414Z" fill="white"/>
<path d="M13.1996 60.0005C17.2413 54.6116 21.1245 49.434 24.5322 44.7759C24.5322 60.0005 24.5322 60.0005 13.1996 60.0005Z" fill="white"/>
<path d="M60 13.1992C54.611 17.2409 49.4334 21.1241 44.7754 24.5318C60 24.5318 60 24.5318 60 13.1992Z" fill="white"/>
<path d="M35.4422 30.0004H30.0004V24.5322H35.4422V30.0004Z" fill="white"/>
<path d="M35.4422 35.4687H30.0004V30.0005H35.4422V35.4687Z" fill="white"/>
<path d="M37.4848 30.0004C39.6773 31.6206 42.1693 33.5226 44.7669 35.4422H35.4419V24.5322H44.7493C42.1517 26.5046 39.6333 28.3802 37.4848 30.0004Z" fill="white"/>
<path d="M60 46.8009C54.611 42.7592 49.4334 38.876 44.7754 35.4683C60 35.4683 60 35.4683 60 46.8009Z" fill="white"/>
<path d="M0 46.8009C5.38894 42.7592 10.5665 38.876 15.2246 35.4683C-2.01541e-05 35.4683 0 35.4683 0 46.8009Z" fill="white"/>
<path d="M29.9997 30.0004H24.5315V24.5322H29.9997V30.0004Z" fill="white"/>
<path d="M29.9997 35.4687H24.5315V30.0005H29.9997V35.4687Z" fill="white"/>
<path d="M24.5312 24.5322V35.4422H15.2238C17.8214 33.4698 20.3134 31.5942 22.5147 30.0004C20.3134 28.3802 17.8214 26.4782 15.2238 24.5322H24.5312Z" fill="white"/>
<path d="M0 13.1992C5.38894 17.2409 10.5665 21.1241 15.2246 24.5318C-2.01541e-05 24.5318 0 24.5318 0 13.1992Z" fill="white"/>
</svg>
