<svg width="20" height="20" viewBox="0 0 20 20" fill="none" xmlns="http://www.w3.org/2000/svg">
<path d="M18.624 6.02998C18.417 5.2309 17.8071 4.60169 17.0326 4.38811C15.6288 4 10 4 10 4C10 4 4.37124 4 2.96738 4.38811C2.19303 4.60169 1.58303 5.2309 1.37607 6.02998C1 7.47826 1 10.5001 1 10.5001C1 10.5001 1 13.5219 1.37607 14.97C1.58303 15.7691 2.19303 16.3985 2.96738 16.612C4.37124 17 10 17 10 17C10 17 15.6288 17 17.0326 16.612C17.8071 16.3985 18.417 15.7691 18.624 14.97C19 13.5219 19 10.5001 19 10.5001C19 10.5001 19 7.47826 18.624 6.02998ZM8.19991 13.2859V7.71432L12.8764 10.5001L8.19991 13.2859Z" fill="black"/>
</svg>
