<svg width="20" height="20" viewBox="0 0 20 20" fill="none" xmlns="http://www.w3.org/2000/svg">
<path fill-rule="evenodd" clip-rule="evenodd" d="M0 4.17948V4.3588L0.158811 4.37206C0.369467 4.38962 0.717971 4.46897 0.88209 4.53674C1.09156 4.62322 1.33656 4.79578 1.49434 4.96795C1.70191 5.19445 1.86617 5.40272 1.98801 5.59388C2.04689 5.68624 3.33662 8.28802 4.85408 11.3756L7.61309 16.9894H7.79648H7.97986L9.25119 14.4233C9.95043 13.012 10.5281 11.8571 10.5348 11.8569C10.5416 11.8567 11.0718 13.0138 11.7131 14.4282L12.8791 17L13.0615 16.9947L13.2438 16.9894L14.3848 14.3673C15.0123 12.9251 16.0904 10.4467 16.7805 8.85975C17.5722 7.03931 18.0805 5.89591 18.1578 5.76176C18.3226 5.4758 18.5123 5.22873 18.7677 4.96738C18.994 4.73586 19.1582 4.61925 19.3942 4.52273C19.5426 4.46205 19.892 4.36463 19.9612 4.36463C19.9964 4.36463 20 4.34762 20 4.1824V4.00016H17.9808H15.9615L15.9674 4.17604L15.9734 4.35194L16.2025 4.39638C16.8138 4.51497 17.1466 4.70245 17.2923 5.01039C17.4064 5.25159 17.3626 5.44344 16.9993 6.29447C16.8359 6.67721 13.5877 14.0856 13.5779 14.0978C13.5762 14.0999 13.1149 13.1407 12.5529 11.9661L11.5309 9.83051L11.8084 9.26919C13.6599 5.52405 13.6311 5.57904 13.9285 5.21506C14.1041 5.00012 14.396 4.72819 14.5397 4.64568C14.7549 4.52204 15.0768 4.40634 15.296 4.37386L15.3893 4.36003V4.18009V4.00016H13.4213H11.4533L11.4592 4.17604L11.4652 4.35191L11.7081 4.39907C12.2023 4.49499 12.5168 4.69213 12.6869 5.01258C12.7266 5.08741 12.7349 5.13263 12.7336 5.26568C12.7322 5.40122 12.7186 5.46401 12.6503 5.6504C12.4281 6.25665 12.1941 6.7563 11.6474 7.79104C11.3418 8.36933 11.0849 8.8441 11.0765 8.84606C11.0541 8.85124 9.99637 6.63126 9.8674 6.30847C9.66461 5.80092 9.58275 5.49406 9.58113 5.23531C9.57971 5.00984 9.6242 4.88351 9.75475 4.74238C9.93066 4.55219 10.1749 4.45648 10.6603 4.38741L10.9119 4.35163V4.18096V4.01029L8.34529 4.00514L5.77869 4V4.17942V4.35882L5.9257 4.37233C6.28338 4.40517 6.73016 4.58329 6.99041 4.79679C7.24242 5.00354 7.63633 5.50983 7.81207 5.85288C7.8577 5.94197 8.38275 7.08918 8.97883 8.40224L10.0626 10.7896L9.18689 12.4474C8.32293 14.0829 8.31076 14.1044 8.28154 14.0489C8.26527 14.018 7.3682 12.3365 6.28805 10.3122C4.21662 6.43016 4.15461 6.30674 3.9968 5.7516C3.90348 5.42333 3.87969 5.19746 3.92152 5.03661C4.01887 4.662 4.31197 4.48294 4.98412 4.38747L5.23566 4.35173L5.24158 4.17596L5.2475 4.00016H2.62375H0V4.17948Z" fill="black"/>
</svg>
