<svg width="20" height="20" viewBox="0 0 20 20" fill="none" xmlns="http://www.w3.org/2000/svg">
<path d="M6.05005 17H3.05005V7H6.05005V17ZM17.05 17H14.05V11.658C14.05 10.266 13.554 9.573 12.571 9.573C11.792 9.573 11.298 9.961 11.05 10.738C11.05 12 11.05 17 11.05 17H8.05005C8.05005 17 8.09005 8 8.05005 7H10.418L10.601 9H10.663C11.278 8 12.261 7.322 13.609 7.322C14.634 7.322 15.463 7.607 16.096 8.323C16.733 9.04 17.05 10.002 17.05 11.353V17Z" fill="black"/>
<path d="M4.55 6C5.40604 6 6.1 5.32843 6.1 4.5C6.1 3.67157 5.40604 3 4.55 3C3.69396 3 3 3.67157 3 4.5C3 5.32843 3.69396 6 4.55 6Z" fill="black"/>
</svg>
