<svg width="20" height="20" viewBox="0 0 20 20" fill="none" xmlns="http://www.w3.org/2000/svg">
<path d="M10 2C12.1736 2 12.4448 2.008 13.2976 2.048C14.1496 2.088 14.7296 2.2216 15.24 2.42C15.768 2.6232 16.2128 2.8984 16.6576 3.3424C17.0644 3.74232 17.3792 4.22607 17.58 4.76C17.7776 5.2696 17.912 5.8504 17.952 6.7024C17.9896 7.5552 18 7.8264 18 10C18 12.1736 17.992 12.4448 17.952 13.2976C17.912 14.1496 17.7776 14.7296 17.58 15.24C17.3797 15.7742 17.0649 16.2581 16.6576 16.6576C16.2576 17.0643 15.7738 17.379 15.24 17.58C14.7304 17.7776 14.1496 17.912 13.2976 17.952C12.4448 17.9896 12.1736 18 10 18C7.8264 18 7.5552 17.992 6.7024 17.952C5.8504 17.912 5.2704 17.7776 4.76 17.58C4.22586 17.3796 3.74202 17.0648 3.3424 16.6576C2.93553 16.2577 2.62075 15.774 2.42 15.24C2.2216 14.7304 2.088 14.1496 2.048 13.2976C2.0104 12.4448 2 12.1736 2 10C2 7.8264 2.008 7.5552 2.048 6.7024C2.088 5.8496 2.2216 5.2704 2.42 4.76C2.62019 4.22574 2.93504 3.74186 3.3424 3.3424C3.74214 2.93538 4.22594 2.62058 4.76 2.42C5.2704 2.2216 5.8496 2.088 6.7024 2.048C7.5552 2.0104 7.8264 2 10 2ZM10 6C8.93913 6 7.92172 6.42143 7.17157 7.17157C6.42143 7.92172 6 8.93913 6 10C6 11.0609 6.42143 12.0783 7.17157 12.8284C7.92172 13.5786 8.93913 14 10 14C11.0609 14 12.0783 13.5786 12.8284 12.8284C13.5786 12.0783 14 11.0609 14 10C14 8.93913 13.5786 7.92172 12.8284 7.17157C12.0783 6.42143 11.0609 6 10 6ZM15.2 5.8C15.2 5.53478 15.0946 5.28043 14.9071 5.09289C14.7196 4.90536 14.4652 4.8 14.2 4.8C13.9348 4.8 13.6804 4.90536 13.4929 5.09289C13.3054 5.28043 13.2 5.53478 13.2 5.8C13.2 6.06522 13.3054 6.31957 13.4929 6.50711C13.6804 6.69464 13.9348 6.8 14.2 6.8C14.4652 6.8 14.7196 6.69464 14.9071 6.50711C15.0946 6.31957 15.2 6.06522 15.2 5.8ZM10 7.6C10.6365 7.6 11.247 7.85286 11.6971 8.30294C12.1471 8.75303 12.4 9.36348 12.4 10C12.4 10.6365 12.1471 11.247 11.6971 11.6971C11.247 12.1471 10.6365 12.4 10 12.4C9.36348 12.4 8.75303 12.1471 8.30294 11.6971C7.85286 11.247 7.6 10.6365 7.6 10C7.6 9.36348 7.85286 8.75303 8.30294 8.30294C8.75303 7.85286 9.36348 7.6 10 7.6Z" fill="black"/>
</svg>
