<svg width="18" height="19" viewBox="0 0 18 19" fill="none" xmlns="http://www.w3.org/2000/svg">
<path d="M17.9736 14.105L17.1561 17.6486C17.0413 18.1495 16.6009 18.5 16.0852 18.5C7.21474 18.4993 0 11.2856 0 2.41613C0 1.90076 0.350506 1.45992 0.851565 1.34567L4.39565 0.528331C4.91179 0.408735 5.43919 0.676612 5.65366 1.16533L7.28928 4.97959C7.48048 5.42886 7.35152 5.95231 6.97355 6.26097L5.08056 7.7807C6.27528 10.2141 8.25406 12.1926 10.6885 13.3878L12.2383 11.4965C12.5438 11.1176 13.0713 10.9864 13.5206 11.181L17.3354 12.816C17.7943 13.0574 18.0931 13.5917 17.9736 14.105Z" fill="#3474BB"/>
</svg>
