<svg width="25" height="25" viewBox="0 0 25 25" fill="none" xmlns="http://www.w3.org/2000/svg">
<path d="M24.9633 18.8958L23.8279 23.8174C23.6685 24.5132 23.0569 25 22.3405 25C10.0205 24.999 0 14.98 0 2.66129C0 1.9455 0.486814 1.33323 1.18273 1.17454L6.10507 0.0393479C6.82193 -0.126757 7.55443 0.245295 7.85231 0.924069L10.124 6.22165C10.3896 6.84564 10.2104 7.57266 9.68549 8.00135L7.05633 10.1121C8.71567 13.4918 11.464 16.2397 14.8452 17.8998L16.9977 15.273C17.422 14.7466 18.1545 14.5645 18.7786 14.8347L24.077 17.1056C24.7143 17.4408 25.1293 18.183 24.9633 18.8958Z" fill="white"/>
</svg>
