<svg width="16" height="16" viewBox="0 0 16 16" fill="none" xmlns="http://www.w3.org/2000/svg">
<path d="M7 14.7279C7 15.2802 7.44772 15.7279 8 15.7279C8.55228 15.7279 9 15.2802 9 14.7279L7 14.7279ZM8.70711 1.29289C8.31658 0.902369 7.68342 0.902369 7.29289 1.29289L0.928932 7.65685C0.538408 8.04738 0.538408 8.68054 0.928932 9.07107C1.31946 9.46159 1.95262 9.46159 2.34315 9.07107L8 3.41421L13.6569 9.07107C14.0474 9.46159 14.6805 9.46159 15.0711 9.07107C15.4616 8.68054 15.4616 8.04738 15.0711 7.65685L8.70711 1.29289ZM9 14.7279L9 2L7 2L7 14.7279L9 14.7279Z" fill="white"/>
</svg>
